<svg aria-hidden="true" style="position: absolute; width: 0; height: 0; overflow: hidden;" version="1.1" xmlns="http://www.w3.org/2000/svg" xmlns:xlink="http://www.w3.org/1999/xlink">
<defs>
<symbol id="icon-bar-chart-square-02" viewBox="0 0 32 32">
<path fill="none" stroke="#667085" style="stroke: var(--color1, #667085)" stroke-linejoin="round" stroke-linecap="round" stroke-miterlimit="4" stroke-width="2.6667" d="M10.667 20v2.667M16 14.667v8M21.333 9.333v13.333M10.4 28h11.2c2.24 0 3.36 0 4.216-0.436 0.756-0.391 1.357-0.992 1.738-1.726l0.011-0.022c0.436-0.856 0.436-1.976 0.436-4.216v-11.2c0-2.24 0-3.36-0.436-4.216-0.391-0.756-0.992-1.357-1.726-1.737l-0.022-0.011c-0.856-0.436-1.976-0.436-4.216-0.436h-11.2c-2.24 0-3.36 0-4.216 0.436-0.756 0.391-1.357 0.992-1.737 1.726l-0.011 0.022c-0.436 0.856-0.436 1.976-0.436 4.216v11.2c0 2.24 0 3.36 0.436 4.216 0.391 0.756 0.992 1.357 1.726 1.738l0.022 0.011c0.856 0.436 1.976 0.436 4.216 0.436z"></path>
</symbol>
<symbol id="icon-check-done-01" viewBox="0 0 32 32">
<path fill="none" stroke="#667085" style="stroke: var(--color1, #667085)" stroke-linejoin="round" stroke-linecap="round" stroke-miterlimit="4" stroke-width="2.6667" d="M8 20l2.667 2.667 6-6M10.667 10.667v-3.733c0-1.493 0-2.24 0.291-2.811 0.261-0.504 0.661-0.905 1.151-1.158l0.015-0.007c0.571-0.291 1.317-0.291 2.811-0.291h10.133c1.493 0 2.24 0 2.811 0.291 0.504 0.261 0.905 0.661 1.158 1.151l0.007 0.015c0.291 0.571 0.291 1.317 0.291 2.811v10.133c0 1.493 0 2.24-0.291 2.811-0.261 0.504-0.661 0.905-1.151 1.158l-0.015 0.007c-0.571 0.291-1.317 0.291-2.811 0.291h-3.733M6.933 29.333h10.133c1.493 0 2.24 0 2.811-0.291 0.504-0.261 0.905-0.661 1.158-1.151l0.007-0.015c0.291-0.571 0.291-1.317 0.291-2.811v-10.133c0-1.493 0-2.24-0.291-2.811-0.261-0.504-0.661-0.905-1.151-1.158l-0.015-0.007c-0.571-0.291-1.317-0.291-2.811-0.291h-10.133c-1.493 0-2.24 0-2.811 0.291-0.504 0.261-0.905 0.661-1.158 1.15l-0.007 0.015c-0.291 0.571-0.291 1.317-0.291 2.811v10.133c0 1.493 0 2.24 0.291 2.811 0.261 0.504 0.661 0.905 1.151 1.158l0.015 0.007c0.571 0.291 1.317 0.291 2.811 0.291z"></path>
</symbol>
<symbol id="icon-home-line" viewBox="0 0 32 32">
<path fill="none" stroke="#667085" style="stroke: var(--color1, #667085)" stroke-linejoin="round" stroke-linecap="round" stroke-miterlimit="4" stroke-width="2.6667" d="M10.667 22.667h10.667M14.691 3.685l-9.044 7.035c-0.604 0.471-0.907 0.707-1.124 1-0.184 0.247-0.33 0.536-0.419 0.848l-0.005 0.019c-0.099 0.352-0.099 0.735-0.099 1.5v9.647c0 1.493 0 2.24 0.291 2.811 0.261 0.504 0.661 0.905 1.151 1.158l0.015 0.007c0.571 0.291 1.317 0.291 2.811 0.291h15.467c1.493 0 2.24 0 2.811-0.291 0.504-0.261 0.905-0.661 1.158-1.151l0.007-0.015c0.291-0.571 0.291-1.317 0.291-2.811v-9.647c0-0.765 0-1.148-0.099-1.501-0.094-0.331-0.24-0.62-0.429-0.874l0.005 0.007c-0.217-0.293-0.52-0.529-1.124-1l-9.044-7.033c-0.468-0.364-0.703-0.547-0.96-0.616-0.105-0.029-0.225-0.046-0.349-0.046s-0.244 0.017-0.358 0.049l0.009-0.002c-0.259 0.069-0.493 0.252-0.961 0.616z"></path>
</symbol>
<symbol id="icon-layers-three-01" viewBox="0 0 32 32">
<path fill="none" stroke="#667085" style="stroke: var(--color1, #667085)" stroke-linejoin="round" stroke-linecap="round" stroke-miterlimit="4" stroke-width="2.6667" d="M2.667 16l12.856 6.428c0.175 0.088 0.263 0.132 0.355 0.148 0.080 0.016 0.164 0.016 0.245 0 0.092-0.016 0.18-0.060 0.355-0.147l12.856-6.429M2.667 22.667l12.856 6.428c0.175 0.088 0.263 0.132 0.355 0.148 0.080 0.016 0.164 0.016 0.245 0 0.092-0.016 0.18-0.060 0.355-0.147l12.856-6.429M2.667 9.333l12.856-6.428c0.175-0.088 0.263-0.131 0.355-0.148 0.037-0.007 0.079-0.011 0.123-0.011s0.086 0.004 0.127 0.012l-0.004-0.001c0.092 0.017 0.18 0.060 0.355 0.147l12.856 6.429-12.856 6.428c-0.175 0.088-0.263 0.132-0.355 0.148-0.037 0.007-0.079 0.011-0.123 0.011s-0.086-0.004-0.127-0.012l0.004 0.001c-0.092-0.016-0.18-0.060-0.355-0.147l-12.856-6.429z"></path>
</symbol>
<symbol id="icon-settings-01" viewBox="0 0 32 32">
<path fill="none" stroke="#667085" style="stroke: var(--color1, #667085)" stroke-linejoin="round" stroke-linecap="round" stroke-miterlimit="4" stroke-width="2.6667" d="M16 20c2.209 0 4-1.791 4-4s-1.791-4-4-4v0c-2.209 0-4 1.791-4 4s1.791 4 4 4v0z"></path>
<path fill="none" stroke="#667085" style="stroke: var(--color1, #667085)" stroke-linejoin="round" stroke-linecap="round" stroke-miterlimit="4" stroke-width="2.6667" d="M24.969 19.636c-0.108 0.238-0.17 0.516-0.17 0.808 0 0.545 0.218 1.038 0.571 1.399l-0-0 0.073 0.072c0.44 0.439 0.712 1.045 0.712 1.715s-0.272 1.277-0.712 1.715l-0 0c-0.439 0.439-1.045 0.711-1.715 0.711s-1.277-0.272-1.715-0.711l-0.073-0.073c-0.36-0.353-0.854-0.57-1.398-0.57-0.292 0-0.57 0.063-0.82 0.175l0.013-0.005c-0.717 0.312-1.21 1.014-1.213 1.83v0.207c0 1.339-1.085 2.424-2.424 2.424s-2.424-1.085-2.424-2.424v-0.109c-0.020-0.838-0.552-1.546-1.294-1.826l-0.014-0.005c-0.238-0.108-0.516-0.17-0.808-0.17-0.545 0-1.038 0.218-1.399 0.571l0-0-0.072 0.073c-0.439 0.441-1.046 0.713-1.717 0.713-1.339 0-2.424-1.085-2.424-2.424 0-0.002 0-0.004 0-0.006v0c0-0.67 0.272-1.276 0.711-1.715v0l0.072-0.073c0.353-0.36 0.57-0.854 0.57-1.398 0-0.292-0.063-0.57-0.175-0.82l0.005 0.013c-0.312-0.717-1.013-1.209-1.829-1.213h-0.207c-1.339 0-2.424-1.085-2.424-2.424s1.085-2.424 2.424-2.424h0.109c0.838-0.020 1.546-0.552 1.826-1.294l0.005-0.014c0.108-0.238 0.17-0.516 0.17-0.808 0-0.545-0.218-1.038-0.571-1.399l0 0-0.073-0.072c-0.439-0.439-0.711-1.046-0.711-1.716 0-1.34 1.086-2.426 2.426-2.426 0.67 0 1.276 0.271 1.715 0.71l0.072 0.072c0.36 0.353 0.854 0.57 1.399 0.57 0.292 0 0.57-0.063 0.821-0.176l-0.013 0.005h0.097c0.716-0.313 1.208-1.013 1.212-1.829v-0.207c0-1.339 1.085-2.424 2.424-2.424s2.424 1.085 2.424 2.424v0 0.111c0.003 0.817 0.496 1.518 1.2 1.826l0.013 0.005c0.238 0.107 0.515 0.17 0.807 0.17 0.544 0 1.038-0.218 1.399-0.57l-0 0 0.072-0.073c0.439-0.44 1.045-0.712 1.715-0.712s1.277 0.272 1.715 0.712l0 0c0.439 0.439 0.711 1.045 0.711 1.715s-0.272 1.276-0.711 1.715v0l-0.073 0.072c-0.353 0.36-0.57 0.854-0.57 1.399 0 0.292 0.063 0.57 0.176 0.821l-0.005-0.013v0.097c0.313 0.716 1.014 1.209 1.83 1.212h0.207c1.339 0 2.424 1.085 2.424 2.424s-1.085 2.424-2.424 2.424v0h-0.109c-0.817 0.003-1.518 0.496-1.826 1.2l-0.005 0.013z"></path>
</symbol>
<symbol id="icon-search" viewBox="0 0 32 32">
<path d="M31.008 27.231l-7.58-6.447c-0.784-0.705-1.622-1.029-2.299-0.998 1.789-2.096 2.87-4.815 2.87-7.787 0-6.627-5.373-12-12-12s-12 5.373-12 12 5.373 12 12 12c2.972 0 5.691-1.081 7.787-2.87-0.031 0.677 0.293 1.515 0.998 2.299l6.447 7.58c1.104 1.226 2.907 1.33 4.007 0.23s0.997-2.903-0.23-4.007zM12 20c-4.418 0-8-3.582-8-8s3.582-8 8-8 8 3.582 8 8-3.582 8-8 8z"></path>
</symbol>
</defs>
</svg>
